<svg id="Layer_1" data-name="Layer 1" xmlns="http://www.w3.org/2000/svg" viewBox="0 0 36 36"><title>logo</title><path d="M11,21.44v-.08s0-.07,0-.11,0-.05,0-.08,0-.09,0-.13v-.11c0-.07,0-.15,0-.22v-.63a2.28,2.28,0,0,0,0-.26v0l0-.26v0a5.17,5.17,0,0,0-.11-.54v0a2.33,2.33,0,0,0-.07-.25v0a2.41,2.41,0,0,0-.08-.25h0A5.74,5.74,0,0,0,10,17h0a4.08,4.08,0,0,0-.31-.39l0,0-.17-.18h0l-.16-.16,0,0L9.12,16l0,0-.18-.14h0a5.58,5.58,0,0,0-.64-.44,2.37,2.37,0,0,0-1.42.76A4.33,4.33,0,0,1,8.25,18.1s0,0,0,.06,0,.1.05.14a.29.29,0,0,1,0,.09.57.57,0,0,1,0,.14h0l0,.14a.83.83,0,0,1,0,.15s0,.07,0,.11a.5.5,0,0,1,0,.12v0a.57.57,0,0,0,0,.13.22.22,0,0,0,0,.08v.11c0,.06,0,.13,0,.19s0,.18,0,.27v0l0,.25a.22.22,0,0,1,0,.08c0,.05,0,.1,0,.15a.43.43,0,0,0,0,.11.74.74,0,0,1,0,.14s0,.07,0,.11,0,.1,0,.15,0,.11-.05.17a.69.69,0,0,0,0,.13l-.05.11a3,3,0,0,1-.2.4,2.38,2.38,0,0,0,2,1.08,2.33,2.33,0,0,0,.7-.11l.05-.11h0v0a1.34,1.34,0,0,0,.07-.18l0-.08.06-.18a.29.29,0,0,1,0-.09c0-.06,0-.12,0-.18l0-.07h0v0l0-.16S11,21.47,11,21.44Z" fill="#fff"/><path d="M7.6,20.2a.68.68,0,0,0,0-.14.13.13,0,0,0,0-.06c0-.05,0-.1,0-.15V19.8c0-.07,0-.14,0-.21s0-.15,0-.22v0l0-.21h0a2.89,2.89,0,0,0-.16-.66h0v0a.49.49,0,0,0,0-.11l0-.05v0h0a3.47,3.47,0,0,0-1.73-1.77,1.5,1.5,0,0,0-.55.31,2.71,2.71,0,0,1,1.09,1.55,1,1,0,0,0,0,.14v0l0,.14v0s0,.1,0,.15v0c0,.06,0,.12,0,.18s0,.12,0,.18h0s0,.06,0,.09,0,.07,0,.11,0,.05,0,.08,0,.09,0,.14l0,.05c0,.06,0,.11,0,.16l0,.05a2.73,2.73,0,0,1-.37.72,1.49,1.49,0,0,0,1.1.49,1.39,1.39,0,0,0,.46-.07,2.77,2.77,0,0,0,.22-.63h0v0l0-.14S7.6,20.22,7.6,20.2Z" fill="#fff"/><path d="M34.35,20.34a2.39,2.39,0,0,0-.54-1.5,3.9,3.9,0,0,0-2.5-2.56,2.38,2.38,0,0,0-2.62-1l-.1-.07a6.29,6.29,0,0,0-3.93-2.69A6.3,6.3,0,0,0,22,11.94h-.07a6.23,6.23,0,0,0-8.37,1.65A10.49,10.49,0,0,1,15.17,15l.09.09.19.2.07.08.08.09.08.09.05.06.1.12h0l.05.06.07.09L16,16h0l.07.09.21.29,0,.06.2.28,0,0v0l.19.31,0,0h0l.18.31,0,0,0,0,.15.3,0,.05,0,0c.05.09.09.18.13.27l0,.07,0,0,.12.31v.05l0,.06.09.26,0,.09v.05l.09.28v.06a.29.29,0,0,1,0,.09,2.5,2.5,0,0,1,.07.26.56.56,0,0,1,0,.12v0c0,.1.05.2.07.3l0,.09v.07a2.21,2.21,0,0,1,.05.25l0,.09v.08c0,.1,0,.21.05.32v0a.41.41,0,0,1,0,.11l0,.25s0,.08,0,.12v.06c0,.09,0,.18,0,.27s0,.06,0,.09v.11c0,.11,0,.23,0,.35s0,.22,0,.33v.06c0,.11,0,.21,0,.32h0v0s0,.09,0,.13a1.49,1.49,0,0,1,0,.21s0,.08,0,.12l0,.21s0,.09,0,.13a2,2,0,0,0,0,.24l0,.17a1.7,1.7,0,0,0,0,.22l0,.1A1.89,1.89,0,0,1,18,25a.36.36,0,0,1,0,.1c0,.1-.05.2-.08.3a12.34,12.34,0,0,1-.42,1.21,4.34,4.34,0,0,0,.63.05,3.69,3.69,0,0,0,.58,0,5.3,5.3,0,0,1,.44-1.09l0-.05h0l.14-.24,0-.05a1.64,1.64,0,0,1,.14-.22h0v0c.06-.08.11-.16.17-.23l0-.06.17-.23h0L20,24.2l0,0,.16-.18.09-.09.17-.18,0,0a10.75,10.75,0,0,1,4.25-2.47,11.37,11.37,0,0,1,2.92-.52h1.53l.17,0h0l.23,0h0l.24,0h0c.25.05.5.11.74.18h0l.19.06.06,0,.16.05.08,0,.14.06.08,0,.14.06.07,0,.17.08.09.05.13.07.1.05.09.06a.33.33,0,0,1,.1.06l.08.05.1.06.08.06.1.07.07.05.1.08,0,0,.09.07,0,0,.1.09,0,0,.1.09c.08-.09.16-.17.23-.26A2.41,2.41,0,0,0,34.35,20.34Z" fill="#fff"/><path d="M16.93,24.13l0-.2v0l0-.2v0l0-.19v-.06c0-.06,0-.12,0-.17v-.09s0-.1,0-.15v-.11h0v-.74h0v-.29c0-.05,0-.09,0-.13v-.16a1.49,1.49,0,0,0,0-.21v-.07h0v-.07c0-.05,0-.1,0-.15V21l0-.08v0h0s0-.06,0-.08l0-.09v-.07a.5.5,0,0,1,0-.12.31.31,0,0,1,0-.08l0-.08,0-.06,0-.09v0a.19.19,0,0,0,0-.07v0l0-.07,0-.1,0-.06v-.06l0-.05,0-.09,0-.08,0-.1v-.08l0-.07h0a.49.49,0,0,1,0-.11l0-.07v0l0,0a.88.88,0,0,0,0-.15l0-.05,0-.06,0,0-.07-.16v0h0l0-.07-.07-.14,0-.06,0,0L16,18.11h0l0,0,0-.06v0l-.13-.23h0v0l-.12-.21,0-.05a1.74,1.74,0,0,0-.11-.18l0-.05-.12-.19,0,0-.06-.09,0,0L15,16.58l0,0-.14-.17h0l0,0a1.29,1.29,0,0,0-.16-.17l0,0-.25-.27,0,0-.07-.07h0l-.13-.12-.07-.07-.18-.17-.06-.05-.25-.21,0,0L13.32,15l-.09-.07-.17-.13-.1-.06-.06,0h0c-.26-.17-.52-.33-.79-.48a3.87,3.87,0,0,0-2.52.93,6.73,6.73,0,0,1,1.68,2h0a6.77,6.77,0,0,1,.61,1.43l.06.23h0l.06.22v0c0,.07,0,.14,0,.21v0l0,.2v0c0,.06,0,.13,0,.19v.05c0,.06,0,.12,0,.18V20h0c0,.14,0,.28,0,.42s0,.22,0,.32h0c0,.05,0,.1,0,.16a.61.61,0,0,0,0,.14l0,.21v.07l0,.24,0,.15c0,.06,0,.12,0,.18s-.09.37-.14.54l0,.05c0,.1-.06.19-.1.29v0c0,.08-.07.17-.11.25a6.09,6.09,0,0,1-.3.63,3.86,3.86,0,0,0,3.12,1.59,4.07,4.07,0,0,0,.61-.05,4,4,0,0,0,1.26,1,9,9,0,0,0,.58-1.87h0v0a1.06,1.06,0,0,0,0-.19Z" fill="#fff"/><path d="M5.49,19.32V19a2,2,0,0,0,0-.43h0a2,2,0,0,0-1.17-1.4,1.51,1.51,0,0,0-.65.65h0a.9.9,0,0,0-.56-.19.91.91,0,0,0-.88.67v.08a.06.06,0,0,0,0,0v.12a.91.91,0,0,0,.91.91.9.9,0,0,0,.6-.22l-.05-.09A1.48,1.48,0,0,0,5,20a1.36,1.36,0,0,0,.29,0,1.8,1.8,0,0,0,.21-.56h0a.13.13,0,0,0,0-.06S5.49,19.34,5.49,19.32ZM3.08,19a.42.42,0,0,1-.41-.41.41.41,0,0,1,.41-.41.41.41,0,0,1,.4.33h0v.11l0,0h0A.42.42,0,0,1,3.08,19Zm.45-.83h0Zm.05.89a.33.33,0,0,0,0,.12A.33.33,0,0,1,3.58,19.05Zm-.09-.4s0,.08,0,.12S3.49,18.69,3.49,18.65Zm0,.14,0,.12Zm0,.14a.56.56,0,0,0,0,.12A.56.56,0,0,1,3.54,18.93Z" fill="#fff"/><path id="小小环下阴影" d="M3.49,18.64A1.48,1.48,0,0,0,5,20a1.36,1.36,0,0,0,.29,0A1.92,1.92,0,0,0,5.51,19a2,2,0,0,0,0-.43,1.74,1.74,0,0,0-2,0Z" fill="#00adee" opacity="0.5"/><path d="M5.51,19a2,2,0,0,0-1.22-1.75,1.49,1.49,0,0,0-.81,1.32v.08a1.49,1.49,0,0,0,1.2.6A1.48,1.48,0,0,0,5.51,19Z" fill="#8bc53f" opacity="0.35"/><circle cx="5.1" cy="19.11" r="0.41" fill="#2e3191" opacity="0.66"/><path d="M12.9,14.64a6.19,6.19,0,0,0-.58,2.61A6.25,6.25,0,0,0,17,23.31c0-.26,0-.52,0-.79A9.54,9.54,0,0,0,12.9,14.64Z" fill="#8bc53f" opacity="0.86"/><path d="M8.9,15.87A3.88,3.88,0,0,0,8.24,18s0,0,0,.06a4.32,4.32,0,0,1,.26,1.36A3.86,3.86,0,0,0,11,21.72,5.76,5.76,0,0,0,8.9,15.87Z" fill="#d6de23" opacity="0.44"/><path d="M12.11,19.23A3.87,3.87,0,0,0,16,23.1,3.79,3.79,0,0,0,17.05,23c0-.14,0-.29,0-.43a9.51,9.51,0,0,0-2.8-6.75A3.87,3.87,0,0,0,12.11,19.23Z" fill="#00adee" opacity="0.66"/><path d="M16,15.36a3.11,3.11,0,0,0-.43,0,10.68,10.68,0,0,1,2.72,7,3.88,3.88,0,0,0-2.29-7Z" fill="#00adee" opacity="0.66"/><path d="M13.61,19.45a2.35,2.35,0,0,0-1.47.52c0,.14,0,.28,0,.42a6.63,6.63,0,0,1-.56,2.68,2.37,2.37,0,1,0,2-3.62Z" fill="#2e3191" opacity="0.66"/><path d="M11.08,19.68a1.5,1.5,0,0,0-2,1.38,1.49,1.49,0,0,0,1.48,1.49h.19a5.87,5.87,0,0,0,.41-2.15A5.63,5.63,0,0,0,11.08,19.68Z" fill="#2e3191" opacity="0.66"/><path d="M12.26,16.83a2.32,2.32,0,0,0-1,.22,6.74,6.74,0,0,1,.89,3.34,7.26,7.26,0,0,1-.1,1.16h.2a2.37,2.37,0,0,0,0-4.73Z" fill="#d6de23" opacity="0.7"/><path d="M18.08,18.94l-.42,0a10.78,10.78,0,0,1,.61,3.56,10.65,10.65,0,0,1-.82,4.11,4.34,4.34,0,0,0,.63.05,3.69,3.69,0,0,0,.58,0,7.61,7.61,0,0,1,3.28-4.1A3.87,3.87,0,0,0,18.08,18.94Z" fill="#f6921e" opacity="0.66"/><circle cx="29.34" cy="17.6" r="2.37" fill="#00adee" opacity="0.57"/><path d="M20.06,24.16a10.47,10.47,0,0,1,4.7-2.94,11.37,11.37,0,0,1,2.92-.52A6.26,6.26,0,1,0,16.08,16a10.69,10.69,0,0,1,2.19,6.49q0,.36,0,.72A6.37,6.37,0,0,0,20.06,24.16Z" fill="#25a9e0" opacity="0.23"/><path d="M7.62,19.12a.9.9,0,0,0-.67-.3.93.93,0,0,0-.67.3A2.84,2.84,0,0,1,6.1,20a.91.91,0,0,0,.85.61.94.94,0,0,0,.61-.23,3.7,3.7,0,0,0,.1-.83A3.57,3.57,0,0,0,7.62,19.12Z" fill="#2e3191" opacity="0.66"/><path d="M33.15,22.4a2.37,2.37,0,1,0-3.54-2.06,2.14,2.14,0,0,0,.05.45A6.45,6.45,0,0,1,33.15,22.4Z" fill="#006838" opacity="0.7"/><path d="M33.13,22.37a3.87,3.87,0,0,0-3-6.28A3.87,3.87,0,0,0,26.23,20a4.14,4.14,0,0,0,.1.87C29.09,20.36,31.65,21,33.13,22.37Z" fill="#5cb947" opacity="0.66"/><path d="M13.19,19.38A6.25,6.25,0,0,0,16.73,25a9.42,9.42,0,0,0,.33-2.5,9.51,9.51,0,0,0-2.76-6.71A6.27,6.27,0,0,0,13.19,19.38Z" fill="#00adee" opacity="0.23"/><path d="M18.58,11a6.21,6.21,0,0,0-5.07,2.6,10.74,10.74,0,0,1,4.76,8.92c0,.33,0,.65-.05,1h.36a6.26,6.26,0,0,0,0-12.51Z" fill="#8bc53f" opacity="0.35"/><path d="M23.36,12.43a6.25,6.25,0,0,0-6.19,5.36,10.87,10.87,0,0,1,1.1,4.52,6.17,6.17,0,0,0,1.89,1.74,10.41,10.41,0,0,1,4.61-2.84,11,11,0,0,1,4.5-.47,6.36,6.36,0,0,0,.34-2.06A6.25,6.25,0,0,0,23.36,12.43Z" fill="#25a9e0" opacity="0.66"/><path d="M8.62,18.47a.93.93,0,0,0-.24,0,4.34,4.34,0,0,1,.14,1.09,4.22,4.22,0,0,1-.39,1.78,1.62,1.62,0,0,0,.49.08,1.49,1.49,0,0,0,0-3Z" fill="#00adee" opacity="0.67"/><path d="M23.09,14.63a6.25,6.25,0,0,0-5.69,3.66,10.67,10.67,0,0,1,.87,4.23,10.19,10.19,0,0,1-.21,2.08,6.52,6.52,0,0,0,1,1,9.52,9.52,0,0,1,5.73-4.44,10.78,10.78,0,0,1,4.57-.46A6.25,6.25,0,0,0,23.09,14.63Z" fill="#5cb947" opacity="0.23"/><path d="M26.17,20a16.86,16.86,0,0,1,3.09-.87,3.87,3.87,0,0,0-7.44,1.5,3.76,3.76,0,0,0,.36,1.61A15.08,15.08,0,0,1,26.17,20Z" fill="#1b75bb" opacity="0.55"/><path d="M14.21,22.81a3.87,3.87,0,0,0,2.09,3.44,9.49,9.49,0,0,0,.76-3.73,9.63,9.63,0,0,0-.56-3.24A3.88,3.88,0,0,0,14.21,22.81Z" fill="#f6921e" opacity="0.66"/><path id="大环" d="M12.16,20.39a6.69,6.69,0,0,1-.17,1.5h.13A3.87,3.87,0,0,0,16,18.11a9.56,9.56,0,0,0-3.87-3.95,3.87,3.87,0,0,0-2.52.93A6.79,6.79,0,0,1,12.16,20.39Z" fill="#5cb947" opacity="0.66"/><path d="M19.06,25.62a9.54,9.54,0,0,1,5.71-4.41c.24-.08.47-.14.71-.2a6.26,6.26,0,0,0-10.4-6.12,10.74,10.74,0,0,1,2.79,10.54A5.8,5.8,0,0,0,19.06,25.62Z" fill="#00adee" opacity="0.23"/><path id="中环" d="M6.84,16.19a4.3,4.3,0,0,1,1.68,3.4,4.56,4.56,0,0,1,0,.54h.13a2.36,2.36,0,0,0,2.22-1.56,5.77,5.77,0,0,0-2.57-3.15A2.37,2.37,0,0,0,6.84,16.19Z" fill="#8bc53f" opacity="0.35"/><path id="小环" d="M6.29,19a1.84,1.84,0,0,1,0,.33,1.5,1.5,0,0,0,1.2-.92,3.46,3.46,0,0,0-1.81-2,1.5,1.5,0,0,0-.55.31A2.73,2.73,0,0,1,6.29,19Z" fill="#00adee" opacity="0.67"/><path d="M3.49,18.63a.41.41,0,0,1-.82-.05.41.41,0,0,1,.41-.41.41.41,0,0,1,.4.33,1.68,1.68,0,0,1,.16-.64.9.9,0,0,0-.56-.19.91.91,0,1,0,0,1.82.9.9,0,0,0,.6-.22A1.41,1.41,0,0,1,3.49,18.63Z" fill="#25a9e0" opacity="0.23"/><path d="M24,21.47l.75-.26a10.66,10.66,0,0,1,4.91-.41,3.87,3.87,0,1,0-5.66.67Z" fill="#25a9e0" opacity="0.78"/><path d="M24.77,21.21c3.38-1.06,6.72-.48,8.45,1.25.74-.83,1.07-1.64.81-2.3-.59-1.53-4.11-1.59-7.86-.14a14.1,14.1,0,0,0-4.57,2.75A11.16,11.16,0,0,1,24.77,21.21Z" fill="#e6e7e8" opacity="0.66"/><path id="大环下阴影" d="M14.43,17.52a3.83,3.83,0,0,0-2.55,1,6.72,6.72,0,0,1-.57,5.19,3.85,3.85,0,0,0,5.57.71,9.59,9.59,0,0,0-1.09-6.62A3.81,3.81,0,0,0,14.43,17.52Z" fill="#00adee" opacity="0.5"/><path id="中环下阴影" d="M10.66,18.13A2.32,2.32,0,0,0,10,18a2.38,2.38,0,0,0-1.56.58,4,4,0,0,1,.12,1A4.23,4.23,0,0,1,8,21.68a2.38,2.38,0,0,0,2,1.08,2.33,2.33,0,0,0,.7-.11,5.64,5.64,0,0,0,.46-2.26A5.71,5.71,0,0,0,10.66,18.13Z" fill="#00adee" opacity="0.5"/><path id="小环下阴影" d="M7.38,18.24a1.46,1.46,0,0,0-1.19.08,2.84,2.84,0,0,1,.1.72,2.75,2.75,0,0,1-.52,1.59,1.49,1.49,0,0,0,1.1.49,1.39,1.39,0,0,0,.46-.07,3.4,3.4,0,0,0,.33-1.46A3.36,3.36,0,0,0,7.38,18.24Z" fill="#00adee" opacity="0.5"/><path d="M3.08,19a.42.42,0,0,1-.41-.41v0a1.66,1.66,0,0,1-.47-.26,1.26,1.26,0,0,0,0,.28.91.91,0,0,0,.91.91.9.9,0,0,0,.6-.22,1.41,1.41,0,0,1-.19-.64A.42.42,0,0,1,3.08,19Z" fill="#25a9e0"/><path d="M4.5,18.32a1.72,1.72,0,0,0-.91.25A1.49,1.49,0,0,0,5,19.52a1.59,1.59,0,0,0,.5-.09,1.72,1.72,0,0,0,0-.39,2,2,0,0,0,0-.43A1.75,1.75,0,0,0,4.5,18.32Z" fill="#00adee" opacity="0.67"/><g id="线框" opacity="0.85"><path d="M9.2,15.48a2.33,2.33,0,0,0-.59-.08,2,2,0,0,0-.35,0,5.74,5.74,0,0,1,2.86,5,5.64,5.64,0,0,1-.46,2.26l.1,0a4,4,0,0,0,.55,1.05,6.73,6.73,0,0,0,.85-3.28,6.79,6.79,0,0,0-2.57-5.3A3.59,3.59,0,0,0,9.2,15.48Z" fill="#fff"/><path d="M6.84,16.19a3.55,3.55,0,0,0-.23.31,1.59,1.59,0,0,0-1,0,3.44,3.44,0,0,1,2,3.12,3.4,3.4,0,0,1-.33,1.46,1.87,1.87,0,0,0,.32-.15,2.25,2.25,0,0,0,.32.78,4.23,4.23,0,0,0,.55-2.09A4.3,4.3,0,0,0,6.84,16.19Z" fill="#fff"/><path d="M4.85,17.05a1.51,1.51,0,0,0-.56.16A2,2,0,0,1,5.51,19a1.92,1.92,0,0,1-.25.95l.16,0a1.53,1.53,0,0,0,.35.68,2.73,2.73,0,0,0-.67-3.86A2.18,2.18,0,0,0,4.85,17.05Z" fill="#fff"/><path d="M17.45,26.63a10.72,10.72,0,0,0-3.95-13,5.16,5.16,0,0,0-.42.68,3.83,3.83,0,0,0-1-.12h0A9.53,9.53,0,0,1,16.3,26.25,4.09,4.09,0,0,0,17.45,26.63Z" fill="#fff"/></g></svg>